<?xml version="1.0" standalone="no"?>
<!DOCTYPE svg PUBLIC "-//W3C//DTD SVG 1.1//EN" "http://www.w3.org/Graphics/SVG/1.1/DTD/svg11.dtd" >
<svg>
<metadata>
Created by FontForge 20120731 at Wed Jul 10 20:13:40 2019
 By www
&#60; info@fontfont.de &#62; Copyright Martin Majoor, 1998. Published by FontShop International.  FontFont Release 22
</metadata>
<defs>
<font id="ScalaSans-RegularCn" horiz-adv-x="461" >
  <font-face 
    font-family="Scala Sans"
    font-weight="500"
    font-stretch="normal"
    units-per-em="1000"
    panose-1="0 0 0 0 0 0 0 0 0 0"
    ascent="800"
    descent="-200"
    x-height="452"
    cap-height="660"
    bbox="-98 -256 983 867"
    underline-thickness="20"
    underline-position="-156"
    stemh="58"
    stemv="76"
    unicode-range="U+0020-FB02"
  />
<missing-glyph horiz-adv-x="500" 
 />
    <glyph glyph-name=".notdef" horiz-adv-x="500" 
 />
    <glyph glyph-name="space" unicode=" " horiz-adv-x="200" 
 />
    <glyph glyph-name="exclam" unicode="!" horiz-adv-x="232" 
d="M164 736l-5 -542h-77l-5 542h87zM174 45c0 -30 -18 -58 -54 -58s-54 28 -54 58s18 58 54 58s54 -28 54 -58z" />
    <glyph glyph-name="quotedbl" unicode="&#x22;" horiz-adv-x="350" 
d="M275 434h-72v226h72v-226zM148 434h-71v226h71v-226z" />
    <glyph glyph-name="numbersign" unicode="#" horiz-adv-x="541" 
d="M497 459l-9 -59h-90l-20 -128h92l-8 -59h-94l-33 -213h-65l32 213h-98l-35 -213h-65l34 213h-92l8 59h94l21 128h-93l8 59h93l33 199h64l-31 -199h98l32 199h66l-32 -199h90zM332 400h-99l-20 -128h99z" />
    <glyph glyph-name="dollar" unicode="$" horiz-adv-x="448" 
d="M404 625l-35 -77c-33 24 -69 46 -111 51v-231c75 -62 141 -82 141 -196c0 -96 -46 -163 -141 -181v-60h-52l-1 56c-76 5 -113 22 -163 62l39 74c41 -33 70 -57 124 -63v241c-69 52 -146 99 -146 195c0 94 52 156 146 172v61h53v-59c65 -3 98 -11 146 -45zM205 401v195
c-42 -14 -65 -49 -65 -94c0 -55 33 -68 65 -101zM318 162c0 64 -27 73 -60 108v-205c37 15 60 54 60 97z" />
    <glyph glyph-name="percent" unicode="%" horiz-adv-x="702" 
d="M674 162c0 -95 -61 -175 -149 -175c-89 0 -148 80 -148 175c0 96 59 176 148 176c88 0 149 -80 149 -176zM617 692l-461 -736h-72l461 736h72zM327 494c0 -96 -60 -175 -149 -175c-88 0 -149 79 -149 175s61 177 149 177c89 0 149 -81 149 -177zM609 162
c0 65 -44 116 -84 116c-41 0 -84 -51 -84 -116c0 -64 43 -114 84 -114c40 0 84 50 84 114zM262 494c0 64 -43 116 -84 116c-40 0 -84 -52 -84 -116c0 -65 44 -115 84 -115c41 0 84 50 84 115z" />
    <glyph glyph-name="ampersand" unicode="&#x26;" horiz-adv-x="582" 
d="M588 102c-20 -38 -28 -51 -43 -69c-23 -29 -48 -45 -89 -45c-54 0 -80 29 -111 70c-45 -49 -90 -71 -158 -71c-109 0 -171 73 -171 181c0 69 25 117 100 192l35 35c-11 18 -21 35 -30 49c-32 53 -43 85 -43 129c0 98 60 167 165 167c97 0 153 -60 153 -143
c0 -44 -26 -92 -72 -135l-47 -44l-37 60l32 30c31 29 44 53 44 87c0 47 -37 83 -74 83c-42 0 -83 -43 -83 -100c0 -50 30 -96 54 -137l147 -253c18 25 26 40 34 66c10 30 13 51 17 106h72c-4 -61 -8 -86 -19 -119c-13 -40 -27 -64 -66 -117c33 -51 51 -69 66 -69
c16 0 36 15 74 83zM308 121l-122 211l-23 -24c-45 -47 -65 -81 -65 -131c0 -74 46 -123 101 -123c53 0 75 32 109 67z" />
    <glyph glyph-name="quoteright" unicode="&#x2019;" horiz-adv-x="222" 
d="M164 608c0 -47 -25 -114 -66 -180h-51c16 24 19 30 29 61c7 21 10 33 15 59l-44 107c31 15 38 17 59 17c39 0 58 -21 58 -64z" />
    <glyph glyph-name="parenleft" unicode="(" horiz-adv-x="311" 
d="M299 -245h-76c-78 119 -117 319 -117 458c0 116 39 350 117 453h76c-64 -95 -110 -284 -110 -456c0 -174 45 -360 110 -455z" />
    <glyph glyph-name="parenright" unicode=")" horiz-adv-x="311" 
d="M212 213c0 -141 -39 -336 -117 -458h-76c65 95 110 281 110 455c0 172 -46 361 -110 456h76c78 -96 117 -334 117 -453z" />
    <glyph glyph-name="asterisk" unicode="*" horiz-adv-x="421" 
d="M409 471l-145 -51l-17 61l133 64zM248 660l-6 -170h-63l-4 170h73zM353 278l-57 -42l-81 139l48 35zM174 481l-17 -61l-145 51l29 74zM206 375l-81 -139l-58 42l90 132z" />
    <glyph glyph-name="plus" unicode="+" 
d="M430 207h-168v-207h-61v207h-168v59h168v208h61v-208h168v-59z" />
    <glyph glyph-name="comma" unicode="," horiz-adv-x="222" 
d="M165 36c0 -17 -3 -34 -8 -53c-9 -30 -19 -54 -46 -104l-13 -24h-44c10 22 13 30 22 57c9 28 11 36 17 62l-43 108c21 14 35 18 58 18c38 0 57 -22 57 -64z" />
    <glyph glyph-name="hyphen" unicode="-" horiz-adv-x="241" 
d="M205 190h-169v76h169v-76z" />
    <glyph glyph-name="period" unicode="." horiz-adv-x="221" 
d="M166 45c0 -32 -25 -57 -56 -57c-32 0 -57 25 -57 57c0 31 25 56 57 56c31 0 56 -25 56 -56z" />
    <glyph glyph-name="slash" unicode="/" horiz-adv-x="348" 
d="M311 660l-203 -905h-72l203 905h72z" />
    <glyph glyph-name="zero" unicode="0" horiz-adv-x="477" 
d="M451 234c0 -137 -86 -252 -207 -252c-122 0 -208 115 -208 252c0 138 86 253 208 253c121 0 207 -115 207 -253zM375 234c0 107 -65 193 -131 193c-67 0 -132 -86 -132 -193c0 -106 65 -193 132 -193c66 0 131 87 131 193z" />
    <glyph glyph-name="one" unicode="1" horiz-adv-x="333" 
d="M217 0h-77v417h-91v61h168v-478z" />
    <glyph glyph-name="two" unicode="2" horiz-adv-x="416" 
d="M375 0h-339v39l186 200c26 28 40 62 40 97c0 50 -19 84 -62 84c-48 0 -84 -49 -109 -82l-47 42c45 58 76 105 162 105c89 0 135 -59 135 -146c0 -79 -29 -113 -85 -168l-112 -110h231v-61z" />
    <glyph glyph-name="three" unicode="3" horiz-adv-x="365" 
d="M314 40c0 -144 -95 -220 -257 -220h-28v62c65 0 106 8 143 34c42 29 66 63 66 117c0 78 -43 122 -105 122h-48v50c82 22 128 65 128 135c0 49 -31 82 -62 82c-25 0 -59 -20 -82 -53l-40 55c22 19 63 62 133 62c76 0 125 -56 125 -138c0 -70 -25 -109 -80 -143
c23 -9 32 -13 43 -21c41 -28 64 -79 64 -144z" />
    <glyph glyph-name="four" unicode="4" horiz-adv-x="442" 
d="M428 -1h-95v-169h-72v169h-253v20l283 465h42v-425h95v-60zM261 59v249l-154 -249h154z" />
    <glyph glyph-name="five" unicode="5" horiz-adv-x="351" 
d="M311 45c0 -106 -54 -180 -159 -206c-28 -7 -46 -10 -107 -14v62c55 4 70 6 99 17c56 21 88 60 88 136c0 93 -31 133 -127 137l-44 2v299h234v-61h-160v-180l28 -2c94 -7 148 -68 148 -190z" />
    <glyph glyph-name="six" unicode="6" horiz-adv-x="456" 
d="M406 210c0 -131 -66 -231 -171 -231c-116 0 -178 111 -178 287c0 165 60 364 264 364c20 0 32 -2 60 -5v-61c-31 5 -37 5 -50 5c-129 0 -180 -111 -197 -215c15 9 61 40 127 40c92 0 145 -77 145 -184zM336 202c0 75 -42 131 -87 131c-38 0 -86 -27 -117 -46
c-1 -21 -1 -30 -1 -40c0 -119 49 -203 106 -203c50 0 99 69 99 158z" />
    <glyph glyph-name="seven" unicode="7" horiz-adv-x="393" 
d="M365 439l-97 -305c-10 -32 -41 -108 -61 -147c-34 -65 -35 -60 -86 -137l-52 45c39 49 95 149 117 218l94 298h-244v67h329v-39z" />
    <glyph glyph-name="eight" unicode="8" horiz-adv-x="420" 
d="M385 140c0 -95 -67 -155 -180 -155c-106 0 -169 58 -169 154c0 57 28 98 69 134l57 50l-52 50c-43 42 -53 67 -53 111c0 90 58 154 158 154c94 0 150 -58 150 -139c0 -45 -16 -85 -51 -118l-55 -51c33 -35 69 -65 93 -100c26 -39 33 -43 33 -90zM284 499
c0 49 -34 82 -75 82c-37 0 -74 -39 -74 -90c0 -29 10 -56 36 -84l39 -41l39 41c23 24 35 59 35 92zM305 142c0 39 -7 51 -46 92l-49 52l-49 -46c-30 -28 -46 -56 -46 -98c0 -55 39 -93 92 -93c55 0 98 40 98 93z" />
    <glyph glyph-name="nine" unicode="9" horiz-adv-x="456" 
d="M408 199c0 -166 -60 -364 -265 -364c-20 0 -31 2 -59 5v66c34 -5 40 -6 50 -6c129 0 180 106 197 211c-39 -23 -82 -40 -127 -40c-91 0 -145 77 -145 184c0 132 66 232 170 232c117 0 179 -111 179 -288zM333 218c0 120 -47 204 -105 204c-50 0 -99 -69 -99 -159
c0 -75 42 -131 88 -131c39 0 84 26 115 46c1 21 1 30 1 40z" />
    <glyph glyph-name="colon" unicode=":" horiz-adv-x="221" 
d="M167 409c0 -32 -25 -57 -56 -57c-32 0 -57 25 -57 57c0 31 25 56 57 56c31 0 56 -25 56 -56zM167 45c0 -32 -25 -57 -56 -57c-32 0 -57 25 -57 57c0 31 25 56 57 56c31 0 56 -25 56 -56z" />
    <glyph glyph-name="semicolon" unicode=";" horiz-adv-x="221" 
d="M174 409c0 -32 -25 -57 -57 -57c-31 0 -56 25 -56 57c0 31 25 56 56 56c32 0 57 -25 57 -56zM167 36c0 -17 -3 -34 -8 -53c-8 -30 -17 -55 -46 -104l-14 -24h-44c11 22 13 30 22 57c10 28 12 36 18 62l-43 108c21 14 34 18 58 18c38 0 57 -22 57 -64z" />
    <glyph glyph-name="less" unicode="&#x3c;" 
d="M429 -8l-396 218v54l396 218v-72l-318 -173l318 -173v-72z" />
    <glyph glyph-name="equal" unicode="=" 
d="M440 271h-418v59h418v-59zM440 134h-418v59h418v-59z" />
    <glyph glyph-name="greater" unicode="&#x3e;" 
d="M429 210l-396 -218v72l318 173l-318 173v72l396 -218v-54z" />
    <glyph glyph-name="question" unicode="?" horiz-adv-x="355" 
d="M312 446c0 -52 -10 -86 -34 -116c-22 -27 -34 -33 -79 -33h-33v-109h-76v174h122c16 29 21 50 21 82c0 116 -66 205 -164 221l22 76c62 -16 78 -23 105 -42c70 -50 116 -149 116 -253zM181 46c0 -31 -17 -58 -53 -58s-54 27 -54 58c0 30 18 57 54 57s53 -27 53 -57z" />
    <glyph glyph-name="at" unicode="@" horiz-adv-x="822" 
d="M746 265c0 -167 -75 -274 -209 -274c-67 0 -92 32 -92 95c0 9 0 21 2 34c-44 -76 -97 -123 -152 -123c-43 0 -61 60 -61 148c0 186 79 333 196 333c65 0 118 -23 130 -28l-42 -326c-2 -18 -3 -33 -3 -42c0 -25 21 -40 35 -40c10 0 21 4 33 11c63 34 95 103 95 206
c0 177 -116 313 -248 313c-155 0 -278 -146 -278 -352c0 -152 88 -318 257 -318c41 0 70 7 129 40l21 -67c-19 -11 -59 -40 -152 -40c-217 0 -325 182 -325 383c0 245 137 421 346 421c192 0 318 -157 318 -374zM484 397c-25 10 -38 15 -55 15c-58 0 -116 -120 -116 -270
c0 -44 10 -60 17 -60c1 0 22 16 49 50c10 13 22 33 36 57c32 58 49 102 59 154z" />
    <glyph glyph-name="A" unicode="A" horiz-adv-x="497" 
d="M490 0h-87l-54 196h-199l-55 -196h-87l198 679h87zM327 269l-77 294l-79 -294h156z" />
    <glyph glyph-name="B" unicode="B" horiz-adv-x="494" 
d="M446 177c0 -104 -65 -177 -162 -177h-194v660h170c101 0 166 -62 166 -163c0 -70 -40 -127 -96 -151c71 -18 116 -79 116 -169zM340 490c0 61 -32 103 -96 103h-72v-217h68c64 0 100 56 100 114zM360 182c0 78 -54 121 -116 121h-72v-236h72c75 0 116 39 116 115z" />
    <glyph glyph-name="C" unicode="C" horiz-adv-x="505" 
d="M486 608l-48 -68c-37 37 -80 59 -123 59c-102 0 -185 -109 -185 -261c0 -167 84 -277 198 -277c37 0 76 13 118 41l30 -71c-49 -27 -95 -44 -152 -44c-171 0 -282 145 -282 346c0 191 112 339 275 339c104 0 159 -56 169 -64z" />
    <glyph glyph-name="D" unicode="D" horiz-adv-x="590" 
d="M549 333c0 -181 -89 -333 -285 -333h-174v660h175c166 0 284 -139 284 -327zM464 334c0 148 -101 259 -210 259h-82v-526h82c142 0 210 141 210 267z" />
    <glyph glyph-name="E" unicode="E" horiz-adv-x="452" 
d="M411 0h-321v660h314v-67h-232v-223h192v-67h-192v-236h239v-67z" />
    <glyph glyph-name="F" unicode="F" horiz-adv-x="439" 
d="M404 593h-232v-229h192v-68h-192v-296h-82v660h314v-67z" />
    <glyph glyph-name="G" unicode="G" horiz-adv-x="588" 
d="M513 26c-56 -27 -118 -39 -180 -39c-171 0 -291 151 -291 344c0 194 117 340 289 340c73 0 123 -10 182 -51l-38 -74c-49 34 -74 53 -138 53c-139 0 -208 -138 -208 -262c0 -160 101 -278 223 -278c21 0 36 2 79 13v224h82v-270z" />
    <glyph glyph-name="H" unicode="H" horiz-adv-x="638" 
d="M550 0h-82v303h-296v-303h-82v660h82v-284h296v284h82v-660z" />
    <glyph glyph-name="I" unicode="I" horiz-adv-x="261" 
d="M172 0h-82v660h82v-660z" />
    <glyph glyph-name="J" unicode="J" horiz-adv-x="261" 
d="M172 -19c-16 -56 -25 -77 -51 -118c-24 -38 -39 -56 -81 -96l-53 45c46 51 59 69 73 95c19 38 30 91 30 150v603h82v-679z" />
    <glyph glyph-name="K" unicode="K" horiz-adv-x="478" 
d="M467 0h-94l-201 330v-330h-82v660h82v-324l196 324h88l-204 -321z" />
    <glyph glyph-name="L" unicode="L" horiz-adv-x="417" 
d="M399 0h-309v660h82v-593h227v-67z" />
    <glyph glyph-name="M" unicode="M" horiz-adv-x="724" 
d="M634 0h-80v539l-4 -33l-157 -506h-76l-146 493l-5 36v-529h-74v660h104l162 -537l2 -27l2 27l168 537h104v-660z" />
    <glyph glyph-name="N" unicode="N" horiz-adv-x="629" 
d="M539 -6h-100l-267 554v-548h-80v660h109l258 -530v530h80v-666z" />
    <glyph glyph-name="O" unicode="O" horiz-adv-x="632" 
d="M591 330c0 -197 -109 -343 -274 -343s-275 146 -275 343c0 196 110 342 275 342s274 -146 274 -342zM503 330c0 149 -90 272 -186 272s-186 -123 -186 -272c0 -150 90 -273 186 -273s186 123 186 273z" />
    <glyph glyph-name="P" unicode="P" horiz-adv-x="466" 
d="M443 465c0 -136 -80 -224 -207 -224c-27 0 -45 5 -64 7v-248h-82v660h164c128 0 189 -72 189 -195zM358 460c0 73 -34 133 -114 133h-72v-278c35 -5 37 -5 52 -5c88 0 134 64 134 150z" />
    <glyph glyph-name="Q" unicode="Q" horiz-adv-x="632" 
d="M591 329c0 -173 -86 -308 -221 -341c18 -29 35 -57 65 -85c28 -27 46 -39 94 -65l-41 -69c-64 41 -80 56 -113 88c-45 43 -71 86 -100 130c-32 7 -43 9 -61 17c-101 43 -172 178 -172 326c0 196 109 342 275 342c165 0 274 -146 274 -343zM504 330
c0 149 -91 272 -187 272s-187 -123 -187 -272c0 -150 90 -274 187 -274c96 0 187 124 187 274z" />
    <glyph glyph-name="R" unicode="R" horiz-adv-x="488" 
d="M463 0h-90l-150 284h-51v-284h-82v660h159c115 0 186 -63 186 -179c0 -124 -76 -179 -132 -186zM348 480c0 76 -33 115 -108 115h-68v-244h68c59 0 108 43 108 129z" />
    <glyph glyph-name="S" unicode="S" horiz-adv-x="448" 
d="M404 625l-39 -73c-43 32 -72 46 -128 46c-50 0 -94 -39 -94 -96c0 -49 23 -73 131 -144c74 -48 125 -93 125 -187c0 -105 -66 -184 -182 -184c-78 0 -114 13 -175 52l43 70c46 -31 76 -49 136 -49c52 0 93 39 93 103c0 84 -81 120 -141 160c-80 53 -114 104 -114 172
c0 104 67 176 183 176c68 0 108 -9 162 -46z" />
    <glyph glyph-name="T" unicode="T" horiz-adv-x="452" 
d="M434 593h-167v-593h-82v593h-167v67h416v-67z" />
    <glyph glyph-name="U" unicode="U" horiz-adv-x="581" 
d="M507 226c0 -137 -74 -245 -215 -245c-147 0 -216 109 -216 245v434h82v-409c0 -87 21 -199 133 -199c111 0 134 112 134 199v409h82v-434z" />
    <glyph glyph-name="V" unicode="V" horiz-adv-x="488" 
d="M480 660l-207 -677h-55l-210 677h83l158 -525l153 525h78z" />
    <glyph glyph-name="W" unicode="W" horiz-adv-x="713" 
d="M707 660l-202 -673h-56l-88 296l-89 -296h-51l-213 673h83l159 -538l77 264l-86 274h77l45 -168l44 168h69l-80 -262l81 -274l152 536h78z" />
    <glyph glyph-name="X" unicode="X" horiz-adv-x="479" 
d="M471 0h-87l-143 265l-146 -265h-87l191 337l-182 323h87l138 -250l135 250h87l-183 -324z" />
    <glyph glyph-name="Y" unicode="Y" 
d="M454 660l-187 -352v-308h-82v302l-177 358h83l139 -287l142 287h82z" />
    <glyph glyph-name="Z" unicode="Z" horiz-adv-x="497" 
d="M463 0h-427v39l311 554h-311v67h413v-45l-312 -548h326v-67z" />
    <glyph glyph-name="bracketleft" unicode="[" horiz-adv-x="220" 
d="M209 -245h-148v905h148v-58h-71v-789h71v-58z" />
    <glyph glyph-name="backslash" unicode="\" horiz-adv-x="348" 
d="M311 -245h-72l-203 905h72z" />
    <glyph glyph-name="bracketright" unicode="]" horiz-adv-x="220" 
d="M160 -245h-148v58h71v789h-71v58h148v-905z" />
    <glyph glyph-name="asciicircum" unicode="^" horiz-adv-x="439" 
d="M419 1h-67l-132 372l-132 -372h-67l169 472h59z" />
    <glyph glyph-name="underscore" unicode="_" horiz-adv-x="421" 
d="M420 -57h-418v57h418v-57z" />
    <glyph glyph-name="quoteleft" unicode="&#x2018;" horiz-adv-x="222" 
d="M178 433c-31 -15 -38 -17 -59 -17c-39 0 -58 21 -58 64c0 47 25 114 66 180h51c-16 -24 -19 -30 -29 -61c-7 -21 -10 -33 -15 -59z" />
    <glyph glyph-name="a" unicode="a" horiz-adv-x="402" 
d="M360 51l-15 -65c-58 5 -79 27 -85 59c-21 -28 -49 -57 -109 -57c-69 0 -106 49 -106 120c0 66 26 105 90 122l118 32v93c0 38 -25 55 -61 55c-27 0 -48 -15 -48 -42c0 -5 2 -9 4 -17l-76 -19c-7 16 -8 20 -8 31c0 59 51 102 139 102c84 0 127 -45 127 -114v-243v-33
c0 -12 12 -20 30 -24zM253 109v93l-121 -35c-9 -21 -10 -34 -10 -52c0 -37 22 -65 41 -65c30 0 62 25 90 59z" />
    <glyph glyph-name="b" unicode="b" horiz-adv-x="443" 
d="M407 247c0 -156 -81 -260 -221 -260c-38 0 -85 7 -118 27v715h76v-295c31 21 71 32 102 32c102 0 161 -90 161 -219zM325 244c0 95 -42 153 -99 153c-31 0 -57 -14 -82 -36v-297c18 -10 31 -11 45 -11c99 0 136 108 136 191z" />
    <glyph glyph-name="c" unicode="c" horiz-adv-x="365" 
d="M365 36c-40 -31 -82 -49 -134 -49c-122 0 -194 97 -194 234c0 141 76 244 198 244c74 0 109 -36 122 -47l-40 -54c-29 28 -60 35 -84 35c-63 0 -114 -71 -114 -174c0 -105 52 -171 119 -171c26 0 64 11 90 36z" />
    <glyph glyph-name="d" unicode="d" horiz-adv-x="452" 
d="M385 0h-76v48c-28 -36 -66 -61 -112 -61c-100 0 -160 99 -160 231c0 144 75 248 193 248c37 0 60 -6 79 -19v282h76v-729zM309 135v164c0 35 -1 45 -7 60c-11 26 -38 37 -65 37c-67 0 -119 -67 -119 -177c0 -92 43 -163 89 -163c44 0 80 40 102 79z" />
    <glyph glyph-name="e" unicode="e" horiz-adv-x="396" 
d="M365 234h-249c0 -120 41 -180 111 -180c23 0 59 10 99 48l34 -56c-40 -34 -90 -59 -146 -59c-112 0 -177 98 -177 239c0 142 66 239 180 239c96 0 148 -77 148 -188v-43zM283 288c-1 70 -31 113 -70 113c-52 0 -83 -37 -92 -113h162z" />
    <glyph glyph-name="f" unicode="f" horiz-adv-x="246" 
d="M336 716l-27 -65c-34 17 -54 20 -65 20c-51 0 -84 -53 -84 -162v-57h86v-61h-86v-391h-77v391h-61v41l61 19v77c0 127 59 211 165 211c38 0 60 -7 88 -23z" />
    <glyph glyph-name="g" unicode="g" horiz-adv-x="427" 
d="M410 392h-85c19 -29 27 -61 27 -97c0 -91 -59 -171 -146 -171c-12 0 -26 1 -40 4c-33 -34 -42 -51 -42 -63c0 -15 2 -22 23 -22h144c78 0 106 -32 106 -104c0 -105 -85 -192 -205 -192c-87 0 -151 52 -151 110c0 42 36 95 60 126c-37 13 -52 26 -52 52c0 29 22 63 71 113
c-46 31 -70 80 -70 143c0 101 58 174 154 174c33 0 45 -5 78 -19h52l76 8v-62zM275 294c0 78 -40 116 -75 116c-34 0 -74 -41 -74 -116c0 -79 41 -115 75 -115c35 0 74 36 74 115zM330 -74c0 32 -17 52 -39 52h-137c-25 -35 -43 -80 -43 -105c0 -35 47 -63 86 -63
c73 0 133 45 133 116z" />
    <glyph glyph-name="h" unicode="h" horiz-adv-x="453" 
d="M387 0h-76v321c0 32 0 75 -45 75c-28 0 -58 -11 -122 -99v-297h-76v729h76v-349c37 46 73 85 139 85c75 0 104 -42 104 -126v-339z" />
    <glyph glyph-name="i" unicode="i" horiz-adv-x="218" 
d="M157 611c0 -27 -22 -49 -49 -49s-49 22 -49 49s22 49 49 49s49 -22 49 -49zM147 0h-76v454h76v-454z" />
    <glyph glyph-name="j" unicode="j" horiz-adv-x="216" 
d="M157 612c0 -27 -22 -49 -49 -49s-49 22 -49 49s22 49 49 49s49 -22 49 -49zM147 -75c-21 -50 -31 -69 -51 -102c-19 -32 -29 -45 -57 -79l-50 42c34 47 43 61 58 92c17 34 24 68 24 116v459h76v-528z" />
    <glyph glyph-name="k" unicode="k" horiz-adv-x="384" 
d="M373 0h-92l-137 239v-239h-76v729h76v-477l137 202h91l-152 -209z" />
    <glyph glyph-name="l" unicode="l" horiz-adv-x="211" 
d="M144 0h-76v729h76v-729z" />
    <glyph glyph-name="m" unicode="m" horiz-adv-x="699" 
d="M633 0h-76v321c0 33 0 75 -45 75c-32 0 -55 -12 -122 -99v-297h-76v321c0 33 0 75 -45 75c-27 0 -58 -11 -122 -99v-297h-76v453h76v-73c35 47 77 85 140 85c64 0 93 -30 101 -89c36 49 74 89 141 89c75 0 104 -44 104 -127v-338z" />
    <glyph glyph-name="n" unicode="n" horiz-adv-x="456" 
d="M390 0h-76v321c0 33 0 75 -45 75c-27 0 -58 -11 -122 -99v-297h-76v453h76v-73c35 47 77 85 140 85c75 0 103 -44 103 -127v-338z" />
    <glyph glyph-name="o" unicode="o" horiz-adv-x="447" 
d="M412 226c0 -128 -78 -239 -187 -239c-110 0 -188 111 -188 239c0 129 79 239 188 239s187 -110 187 -239zM330 226c0 97 -52 174 -105 174c-54 0 -106 -77 -106 -174s52 -174 106 -174c53 0 105 77 105 174z" />
    <glyph glyph-name="p" unicode="p" horiz-adv-x="455" 
d="M420 239c0 -144 -76 -252 -194 -252c-37 0 -60 6 -79 19v-245h-76v692h76v-48c28 31 66 61 112 61c101 0 161 -95 161 -227zM339 238c0 92 -43 159 -89 159c-44 0 -81 -42 -103 -74v-174c0 -51 9 -97 73 -97c67 0 119 76 119 186z" />
    <glyph glyph-name="q" unicode="q" horiz-adv-x="437" 
d="M375 -239h-76v248c-11 -6 -45 -24 -102 -24c-101 0 -160 98 -160 224c0 152 83 256 217 256c43 0 83 -10 121 -27v-677zM299 85v302c-17 11 -30 13 -46 13c-75 0 -134 -70 -134 -186c0 -94 42 -163 98 -163c25 0 51 9 82 34z" />
    <glyph glyph-name="r" unicode="r" horiz-adv-x="290" 
d="M289 433l-30 -63s-20 17 -34 17c-20 0 -78 -38 -78 -117v-270h-76v453h76v-68c21 45 55 80 87 80c14 0 38 -11 55 -32z" />
    <glyph glyph-name="s" unicode="s" horiz-adv-x="367" 
d="M329 108c0 -80 -64 -121 -140 -121c-53 0 -99 13 -140 40l29 63c36 -22 73 -41 115 -41c26 0 57 23 57 53c0 47 -38 62 -104 109c-61 43 -90 80 -90 135c0 70 50 119 146 119c50 0 89 -14 126 -38l-34 -62c-29 22 -61 38 -98 38c-31 0 -60 -20 -60 -48
c0 -43 33 -58 94 -103c69 -51 99 -73 99 -144z" />
    <glyph glyph-name="t" unicode="t" horiz-adv-x="268" 
d="M257 45c-42 -43 -66 -58 -104 -58c-52 0 -78 43 -78 102v302h-61v41l61 19v134h75v-134h98v-60h-98v-280c0 -19 0 -53 17 -53c16 0 35 17 54 39z" />
    <glyph glyph-name="u" unicode="u" horiz-adv-x="454" 
d="M386 -1h-76v73c-35 -47 -77 -85 -140 -85c-75 0 -103 44 -103 127v338h76v-321c0 -33 0 -75 45 -75c27 0 58 11 122 99v297h76v-453z" />
    <glyph glyph-name="v" unicode="v" horiz-adv-x="378" 
d="M366 453l-142 -466h-71l-138 466h79l97 -362l97 362h78z" />
    <glyph glyph-name="w" unicode="w" horiz-adv-x="556" 
d="M551 453l-127 -466h-65l-82 293l-81 -293h-66l-122 466h78l85 -353l73 280l-23 73h80l91 -352l86 352h73z" />
    <glyph glyph-name="x" unicode="x" horiz-adv-x="342" 
d="M331 0h-86l-76 157l-78 -157h-79l121 229l-121 224h87l73 -156l73 156h82l-120 -221z" />
    <glyph glyph-name="y" unicode="y" horiz-adv-x="345" 
d="M337 453l-144 -478c-17 -56 -42 -104 -57 -132s-21 -40 -54 -87l-54 38c36 50 48 70 69 117c20 44 28 58 49 127l-138 415h80l92 -297l2 -9l2 9l79 297h74z" />
    <glyph glyph-name="z" unicode="z" horiz-adv-x="389" 
d="M357 0h-329v39l228 349h-218v65h319v-33l-231 -355h231v-65z" />
    <glyph glyph-name="braceleft" unicode="{" horiz-adv-x="348" 
d="M328 -243h-53c-86 0 -114 40 -114 133v219c0 75 -23 112 -53 112h-37v57h37c29 0 53 37 53 112v219c0 93 28 133 114 133h53v-65h-43c-16 0 -28 -12 -37 -29c-8 -15 -10 -33 -10 -71v-200c0 -18 0 -34 -1 -45c-3 -39 -23 -69 -48 -77l-19 -6l17 -3c15 -3 28 -16 37 -33
c11 -22 14 -38 14 -91v-201c0 -37 2 -54 10 -70s21 -29 37 -29h43v-65z" />
    <glyph glyph-name="bar" unicode="|" horiz-adv-x="220" 
d="M148 -239h-72v968h72v-968z" />
    <glyph glyph-name="braceright" unicode="}" horiz-adv-x="348" 
d="M281 221h-37c-29 0 -53 -38 -53 -112v-219c0 -93 -28 -133 -114 -133h-53v65h43c16 0 28 12 37 29c8 15 11 33 11 70v201c0 18 -1 33 0 45c3 39 23 72 49 78l18 4l-18 4c-15 3 -27 16 -36 33c-11 22 -13 38 -13 91v200c0 38 -3 55 -11 71s-21 29 -37 29h-43v65h53
c86 0 114 -40 114 -133v-219c0 -75 23 -111 55 -112l35 -1v-56z" />
    <glyph glyph-name="asciitilde" unicode="~" horiz-adv-x="456" 
d="M444 232c-27 -24 -37 -33 -60 -43c-24 -11 -50 -17 -81 -17c-42 0 -65 8 -114 37c-26 15 -40 19 -49 19c-23 0 -60 -16 -103 -57l-29 51c26 26 37 35 63 48c23 11 46 18 73 18c26 0 48 -7 72 -20l41 -22c23 -12 32 -17 49 -17c10 0 26 3 44 10c18 8 28 15 62 45z" />
    <glyph glyph-name="exclamdown" unicode="&#xa1;" horiz-adv-x="232" 
d="M170 452c0 -30 -17 -57 -53 -57s-54 27 -54 57c0 31 18 58 54 58s53 -27 53 -58zM160 -238h-86l4 541h77z" />
    <glyph glyph-name="cent" unicode="&#xa2;" horiz-adv-x="376" 
d="M365 36c-30 -23 -43 -31 -67 -39c-22 -7 -63 -13 -87 -10l-12 -81h-52l14 93c-88 39 -124 116 -124 222c0 128 66 245 197 245l13 83h51l-13 -90c34 -11 45 -17 72 -41l-40 -56c-22 23 -32 23 -44 29l-51 -336c41 -6 76 8 106 36zM223 397c-76 -7 -104 -109 -104 -172
c0 -53 13 -109 55 -145z" />
    <glyph glyph-name="sterling" unicode="&#xa3;" horiz-adv-x="482" 
d="M539 653l-58 -48c-18 49 -29 59 -54 59c-68 0 -91 -114 -101 -162l-71 -340h153l-21 -67h-152l-32 -148c-7 -32 -16 -68 -29 -98c12 1 27 0 38 -2c41 -8 78 -30 120 -30c16 0 33 15 33 41c0 17 -4 34 -6 51l76 14c7 -40 9 -56 9 -74c0 -61 -34 -96 -114 -96
c-70 0 -117 33 -183 33c-44 0 -101 -23 -146 -35l11 80c88 13 106 69 123 151l24 113h-102l16 55l101 12l80 359c24 108 46 211 180 211c63 0 84 -21 105 -79z" />
    <glyph glyph-name="fraction" unicode="&#x2044;" horiz-adv-x="702" 
d="M587 692l-461 -736h-72l461 736h72z" />
    <glyph glyph-name="yen" unicode="&#xa5;" 
d="M454 660l-166 -313h111v-59h-132v-67h132v-59h-132v-162h-82v162h-131v59h131v67h-131v59h111l-157 313h87l135 -267l138 267h86z" />
    <glyph glyph-name="florin" unicode="&#x192;" horiz-adv-x="482" 
d="M513 651l-58 -46c-22 46 -35 57 -54 57c-16 0 -40 -10 -58 -33c-19 -24 -22 -38 -43 -129l-11 -47h82l-11 -57h-82l-92 -429c-21 -96 -34 -130 -65 -164c-26 -28 -63 -47 -109 -47c-62 0 -93 26 -110 79l57 47c19 -45 35 -59 54 -59c15 0 39 10 58 35c20 26 27 47 44 127
l89 411h-68l12 57h66l15 66c20 88 33 126 65 163c26 29 61 48 109 48c63 0 81 -17 110 -79z" />
    <glyph glyph-name="section" unicode="&#xa7;" horiz-adv-x="338" 
d="M300 671l-54 -54c-20 42 -45 57 -62 57c-45 0 -82 -60 -82 -160c0 -54 9 -117 46 -278c34 -151 53 -254 53 -304c0 -25 -5 -41 -22 -77l-42 19c7 18 10 27 10 41c0 24 -4 51 -11 80l-58 257c-28 124 -41 212 -41 278c0 122 54 204 152 204c26 0 45 -5 60 -11
c19 -8 31 -20 51 -52zM296 -39c0 -122 -54 -204 -153 -204c-25 0 -44 4 -59 10c-20 8 -32 20 -51 53l54 54c21 -43 45 -57 63 -57c45 0 82 59 82 159c0 54 -11 116 -48 278c-34 152 -51 255 -51 304c0 25 4 42 21 79l42 -21c-6 -17 -9 -26 -9 -41c0 -24 3 -51 10 -80
l58 -257c28 -123 41 -212 41 -277z" />
    <glyph glyph-name="quotesingle" unicode="'" horiz-adv-x="221" 
d="M147 434h-72v226h72v-226z" />
    <glyph glyph-name="quotedblleft" unicode="&#x201c;" horiz-adv-x="370" 
d="M328 433c-31 -15 -38 -17 -59 -17c-39 0 -58 21 -58 64c0 47 25 114 66 180h51c-16 -24 -19 -30 -29 -61c-7 -21 -10 -33 -15 -59zM179 433c-31 -15 -38 -17 -59 -17c-39 0 -58 21 -58 64c0 47 25 114 66 180h51c-16 -24 -19 -30 -29 -61c-7 -21 -10 -33 -15 -59z" />
    <glyph glyph-name="guillemotleft" unicode="&#xab;" horiz-adv-x="469" 
d="M424 39l-198 187l198 188v-82l-106 -106l106 -106v-81zM232 39l-198 187l198 188v-82l-106 -106l106 -106v-81z" />
    <glyph glyph-name="guilsinglleft" unicode="&#x2039;" horiz-adv-x="277" 
d="M232 39l-198 187l198 188v-82l-106 -106l106 -106v-81z" />
    <glyph glyph-name="guilsinglright" unicode="&#x203a;" horiz-adv-x="277" 
d="M243 227l-198 -188v82l106 106l-106 106v81z" />
    <glyph glyph-name="fi" unicode="&#xfb01;" horiz-adv-x="465" 
d="M409 694l-29 -72c-59 46 -114 46 -137 46c-50 0 -83 -51 -83 -159v-57h234v-452h-77v391h-157v-391h-77v391h-61v41l61 19v77c0 126 59 211 164 211c57 0 118 -12 162 -45z" />
    <glyph glyph-name="fl" unicode="&#xfb02;" horiz-adv-x="439" 
d="M372 0h-77v657c-27 11 -40 14 -51 14c-51 0 -84 -53 -84 -162v-57h100v-61h-100v-391h-77v391h-61v41l61 19v77c0 127 59 211 165 211c26 0 43 -4 61 -10h63v-729z" />
    <glyph glyph-name="endash" unicode="&#x2013;" 
d="M440 208h-418v57h418v-57z" />
    <glyph glyph-name="dagger" unicode="&#x2020;" horiz-adv-x="480" 
d="M283 660l-9 -175h-68l-10 175h87zM431 386l-156 16v64l156 13v-93zM205 402l-156 -16v93l156 -13v-64zM279 -248h-78v455l5 174h68l5 -174v-455z" />
    <glyph glyph-name="daggerdbl" unicode="&#x2021;" horiz-adv-x="480" 
d="M283 660l-9 -175h-68l-10 175h87zM431 386l-156 16v64l156 13v-93zM205 402l-156 -16v93l156 -13v-64zM279 206l-5 -176h-68l-5 176l5 175h68zM431 -67l-156 13v64l156 16v-93zM205 -54l-156 -13v93l156 -16v-64zM283 -248h-87l10 175h68z" />
    <glyph glyph-name="periodcentered" unicode="&#xb7;" horiz-adv-x="221" 
d="M166 240c0 -31 -25 -57 -56 -57c-32 0 -57 26 -57 57s25 57 57 57c31 0 56 -26 56 -57z" />
    <glyph glyph-name="paragraph" unicode="&#xb6;" horiz-adv-x="536" 
d="M438 -226h-62v897h-40v-897h-61v470h-33c-113 0 -197 113 -197 243c0 68 22 133 61 182c37 46 76 67 147 67h185v-962z" />
    <glyph glyph-name="bullet" unicode="&#x2022;" horiz-adv-x="302" 
d="M269 231c0 -65 -52 -117 -117 -117s-117 52 -117 117s52 117 117 117s117 -52 117 -117z" />
    <glyph glyph-name="quotesinglbase" unicode="&#x201a;" horiz-adv-x="222" 
d="M159 35c0 -47 -23 -111 -66 -179h-50c16 24 20 31 29 60c7 21 9 33 15 59l-44 107c29 15 37 18 59 18c38 0 57 -22 57 -65z" />
    <glyph glyph-name="quotedblbase" unicode="&#x201e;" horiz-adv-x="370" 
d="M308 35c0 -47 -23 -111 -66 -179h-50c16 24 20 31 29 60c7 21 9 33 15 59l-44 107c29 15 37 18 59 18c38 0 57 -22 57 -65zM159 35c0 -47 -23 -111 -66 -179h-50c16 24 20 31 29 60c7 21 9 33 15 59l-44 107c29 15 37 18 59 18c38 0 57 -22 57 -65z" />
    <glyph glyph-name="quotedblright" unicode="&#x201d;" horiz-adv-x="370" 
d="M310 608c0 -47 -25 -114 -66 -180h-51c16 24 19 30 29 61c7 21 10 33 15 59l-44 107c31 15 38 17 59 17c39 0 58 -21 58 -64zM164 608c0 -47 -25 -114 -66 -180h-51c16 24 19 30 29 61c7 21 10 33 15 59l-44 107c31 15 38 17 59 17c39 0 58 -21 58 -64z" />
    <glyph glyph-name="guillemotright" unicode="&#xbb;" horiz-adv-x="469" 
d="M435 227l-198 -188v82l106 106l-106 106v81zM243 227l-198 -188v82l106 106l-106 106v81z" />
    <glyph glyph-name="ellipsis" unicode="&#x2026;" horiz-adv-x="621" 
d="M573 45c0 -29 -18 -56 -54 -56s-53 27 -53 56c0 30 17 57 53 57s54 -27 54 -57zM372 45c0 -29 -18 -56 -54 -56s-53 27 -53 56c0 30 17 57 53 57s54 -27 54 -57zM164 45c0 -29 -17 -56 -53 -56s-54 27 -54 56c0 30 18 57 54 57s53 -27 53 -57z" />
    <glyph glyph-name="perthousand" unicode="&#x2030;" horiz-adv-x="1010" 
d="M983 162c0 -95 -61 -175 -149 -175c-89 0 -149 80 -149 175c0 96 60 176 149 176c88 0 149 -80 149 -176zM674 162c0 -95 -61 -175 -149 -175c-89 0 -148 80 -148 175c0 96 59 176 148 176c88 0 149 -80 149 -176zM617 692l-461 -736h-72l461 736h72zM327 494
c0 -96 -60 -175 -149 -175c-88 0 -149 79 -149 175s61 177 149 177c89 0 149 -81 149 -177zM919 162c0 65 -45 119 -85 119c-41 0 -84 -54 -84 -119c0 -64 43 -116 84 -116c40 0 85 52 85 116zM609 162c0 65 -44 119 -84 119c-41 0 -84 -54 -84 -119c0 -64 43 -116 84 -116
c40 0 84 52 84 116zM262 494c0 64 -43 119 -84 119c-40 0 -84 -55 -84 -119c0 -65 44 -117 84 -117c41 0 84 52 84 117z" />
    <glyph glyph-name="questiondown" unicode="&#xbf;" horiz-adv-x="355" 
d="M299 453c0 -31 -17 -58 -53 -58s-53 27 -53 58c0 30 17 57 53 57s53 -27 53 -57zM304 -163l-21 -79c-62 14 -79 23 -106 42c-69 49 -115 148 -115 253c0 52 10 86 34 115c22 27 34 33 79 33h33v110h76v-176h-123c-16 -30 -20 -49 -20 -81c0 -116 65 -201 163 -217z" />
    <glyph glyph-name="grave" unicode="`" horiz-adv-x="327" 
d="M236 497h-72l-92 163h97z" />
    <glyph glyph-name="acute" unicode="&#xb4;" horiz-adv-x="327" 
d="M296 660l-92 -163h-72l77 163h87z" />
    <glyph glyph-name="circumflex" unicode="&#x2c6;" horiz-adv-x="291" 
d="M302 497h-74l-52 93l-54 -93h-70l90 163h66z" />
    <glyph glyph-name="tilde" unicode="&#x2dc;" horiz-adv-x="384" 
d="M345 575c-18 -21 -26 -27 -46 -37c-22 -11 -46 -16 -64 -16c-29 0 -52 10 -78 27c-23 15 -23 18 -37 18c-9 0 -13 -3 -20 -7c-10 -6 -13 -7 -47 -34l-31 52c27 21 35 26 49 34c17 10 41 16 58 16c5 0 11 0 16 -1c17 -2 22 -5 64 -32c17 -11 22 -16 34 -16
c13 0 24 4 71 44z" />
    <glyph glyph-name="macron" unicode="&#xaf;" horiz-adv-x="346" 
d="M292 539h-235v63h235v-63z" />
    <glyph glyph-name="breve" unicode="&#x2d8;" horiz-adv-x="302" 
d="M288 660c-11 -61 -18 -84 -39 -116s-54 -54 -97 -54s-76 22 -98 54c-20 29 -28 54 -39 116h66c14 -72 43 -106 71 -106s56 34 70 106h66z" />
    <glyph glyph-name="dotaccent" unicode="&#x2d9;" horiz-adv-x="208" 
d="M154 572c0 -25 -16 -50 -48 -50c-33 0 -49 25 -49 50c0 26 16 51 49 51c32 0 48 -25 48 -51z" />
    <glyph glyph-name="dieresis" unicode="&#xa8;" horiz-adv-x="346" 
d="M292 572c0 -25 -16 -50 -48 -50c-33 0 -49 25 -49 50c0 26 16 51 49 51c32 0 48 -25 48 -51zM152 572c0 -25 -17 -50 -49 -50c-33 0 -49 25 -49 50c0 26 16 51 49 51c32 0 49 -25 49 -51z" />
    <glyph glyph-name="ring" unicode="&#x2da;" horiz-adv-x="215" 
d="M180 574c0 -42 -26 -79 -72 -79s-72 37 -72 79s26 80 72 80s72 -38 72 -80zM133 574c0 22 -8 40 -25 40c-8 0 -26 -16 -26 -40s18 -39 26 -39c7 0 25 15 25 39z" />
    <glyph glyph-name="cedilla" unicode="&#xb8;" horiz-adv-x="376" 
d="M287 -145c0 -51 -30 -91 -85 -91c-28 0 -43 5 -88 23l23 58c44 -24 60 -28 68 -28c18 0 24 15 24 35c0 31 -18 40 -45 40h-35l47 95h57l-26 -56c42 -3 60 -31 60 -76z" />
    <glyph glyph-name="hungarumlaut" unicode="&#x2dd;" horiz-adv-x="327" 
d="M312 660l-92 -163h-71l76 163h87zM202 660l-92 -163h-72l77 163h87z" />
    <glyph glyph-name="ogonek" unicode="&#x2db;" horiz-adv-x="222" 
d="M156 -176c-14 -12 -29 -16 -45 -16c-34 0 -43 20 -43 51c0 47 22 93 42 140h43c-6 -19 -9 -25 -14 -45c-6 -22 -17 -27 -10 -48z" />
    <glyph glyph-name="caron" unicode="&#x2c7;" horiz-adv-x="291" 
d="M270 652l-92 -164h-65l-93 164h72l54 -93l53 93h71z" />
    <glyph glyph-name="emdash" unicode="&#x2014;" horiz-adv-x="822" 
d="M822 208h-822v57h822v-57z" />
    <glyph glyph-name="AE" unicode="&#xc6;" horiz-adv-x="657" 
d="M616 0h-319v196h-141l-76 -196h-92l268 660h355v-67h-236v-223h195v-67h-195v-236h241v-67zM297 269v297l-115 -297h115z" />
    <glyph glyph-name="ordfeminine" unicode="&#xaa;" horiz-adv-x="281" 
d="M249 343c-40 3 -61 14 -70 30c-16 -15 -37 -28 -73 -28c-56 0 -85 39 -85 89c0 47 21 77 71 89l75 20v54c0 18 -11 27 -33 27c-15 0 -23 -8 -23 -19v-2c1 -2 1 -3 5 -15l-71 -17c-9 18 -10 22 -10 31c0 46 42 77 107 77c64 0 99 -34 99 -85v-160v-22s0 -4 23 -9zM167 483
l-67 -18c-4 -10 -5 -17 -5 -27c0 -23 14 -33 19 -33c16 0 34 12 53 33v45z" />
    <glyph glyph-name="Lslash" unicode="&#x141;" horiz-adv-x="417" 
d="M399 0h-309v293l-83 -48l-30 51l113 65v299h82v-252l90 52l30 -51l-120 -69v-273h227v-67z" />
    <glyph glyph-name="Oslash" unicode="&#xd8;" horiz-adv-x="636" 
d="M595 330c0 -199 -109 -343 -278 -343c-77 0 -109 7 -169 68l-77 -111l-42 38l82 118c-51 91 -65 136 -65 225c0 202 109 347 277 347c68 0 97 -7 153 -52l72 103l43 -39l-74 -105c51 -67 78 -152 78 -249zM425 545c-31 34 -76 58 -106 58c-92 0 -184 -125 -184 -271
c0 -51 14 -110 34 -151zM507 329c0 61 -19 128 -47 172l-259 -370c47 -51 83 -73 120 -73c94 0 186 124 186 271z" />
    <glyph glyph-name="OE" unicode="&#x152;" horiz-adv-x="756" 
d="M716 0h-313c-36 -7 -71 -13 -97 -13c-154 0 -264 153 -264 343c0 189 110 343 264 343c26 0 63 -5 98 -13h301v-67h-232v-223h192v-67h-192v-236h243v-67zM391 79v503c-32 14 -48 20 -71 20c-100 0 -189 -120 -189 -272c0 -151 90 -272 190 -272c23 0 41 5 70 21z" />
    <glyph glyph-name="ordmasculine" unicode="&#xba;" horiz-adv-x="313" 
d="M157 344c-84 0 -141 80 -141 168s57 167 141 167s141 -79 141 -167s-56 -168 -141 -168zM157 617c-28 0 -64 -42 -64 -105s36 -106 64 -106s64 43 64 106s-36 105 -64 105z" />
    <glyph glyph-name="ae" unicode="&#xe6;" horiz-adv-x="613" 
d="M582 284l-251 -61c0 -111 49 -169 114 -169c23 0 44 3 96 48l34 -55c-52 -41 -87 -60 -143 -60c-66 0 -111 31 -141 84c-41 -46 -74 -83 -140 -83c-71 0 -106 50 -106 125c0 63 33 103 83 116l125 32v83c0 45 -16 66 -55 66c-36 0 -54 -17 -54 -43c0 -5 1 -9 4 -16
l-76 -19c-7 16 -8 20 -8 31c0 59 51 102 139 102c63 0 93 -24 111 -51c10 14 48 51 123 51c89 0 145 -66 145 -153v-28zM500 323c-7 51 -36 78 -72 78c-50 0 -88 -43 -93 -119zM267 125c-6 22 -8 29 -10 45l-3 31l-122 -33c-9 -21 -10 -30 -10 -50c0 -41 20 -68 41 -68
c35 0 68 30 104 75z" />
    <glyph glyph-name="dotlessi" unicode="&#x131;" horiz-adv-x="218" 
d="M147 0h-76v453h76v-453z" />
    <glyph glyph-name="lslash" unicode="&#x142;" horiz-adv-x="211" 
d="M272 409l-128 -74v-335h-76v292l-81 -47l-30 51l111 64v369h76v-325l98 56z" />
    <glyph glyph-name="oslash" unicode="&#xf8;" horiz-adv-x="447" 
d="M429 470l-65 -90c28 -43 43 -97 43 -155c0 -129 -76 -238 -184 -238c-49 0 -71 8 -107 40l-58 -83l-37 34l63 84c-33 44 -52 104 -52 165c0 126 81 238 189 238c46 0 84 -18 111 -45l57 81zM287 355c-21 30 -45 45 -66 45c-53 0 -108 -78 -108 -174c0 -32 6 -62 19 -94z
M326 235c0 28 -3 46 -14 74l-152 -221c19 -25 43 -35 59 -35c52 0 107 83 107 182z" />
    <glyph glyph-name="oe" unicode="&#x153;" horiz-adv-x="690" 
d="M660 234h-248v-19c0 -96 43 -162 109 -162c33 0 78 26 99 49l34 -55c-47 -36 -90 -61 -145 -61c-77 0 -119 46 -142 84c-35 -53 -79 -83 -142 -83c-110 0 -188 109 -188 238c0 131 78 240 190 240c66 0 108 -28 143 -86c27 55 73 85 142 85c95 0 148 -78 148 -187v-43z
M578 288c-7 72 -23 112 -72 112c-55 0 -82 -46 -88 -112h160zM330 223c0 95 -55 176 -106 176c-52 0 -105 -77 -105 -172c0 -102 48 -175 102 -175s109 76 109 171z" />
    <glyph glyph-name="germandbls" unicode="&#xdf;" horiz-adv-x="482" 
d="M464 118c0 -78 -48 -131 -140 -131c-54 0 -80 12 -132 50l35 56c57 -46 75 -48 99 -48c31 0 63 28 63 67c0 50 -60 75 -97 97c-64 37 -87 70 -87 122s13 69 95 145c41 38 53 62 53 101c0 62 -43 103 -95 103c-90 0 -92 -106 -92 -171v-509h-76v391h-70v43l70 17v77
c0 132 57 211 171 211c109 0 167 -62 167 -159c0 -60 -22 -95 -102 -167c-35 -31 -47 -52 -47 -79s19 -48 86 -85c61 -34 99 -58 99 -131z" />
    <glyph glyph-name="Eth" unicode="&#xd0;" horiz-adv-x="590" 
d="M549 333c0 -181 -89 -333 -285 -333h-174v323h-110v59h110v278h175c166 0 284 -139 284 -327zM464 334c0 148 -101 259 -210 259h-82v-211h137v-59h-137v-256h82c142 0 210 141 210 267z" />
    <glyph glyph-name="eth" unicode="&#xf0;" horiz-adv-x="456" 
d="M432 599l-96 -55c55 -74 72 -182 69 -278c-6 -176 -72 -287 -188 -287c-105 0 -168 100 -163 231c3 107 59 184 151 184c66 0 111 -31 126 -40c-8 55 -24 112 -57 154l-127 -74l-29 52l108 62c-23 13 -51 21 -85 21c-12 0 -18 0 -50 -5l2 61c28 3 41 5 60 5
c58 0 104 -16 140 -43l109 63zM330 287c-30 19 -77 46 -115 46c-45 0 -89 -56 -92 -131c-3 -89 43 -158 94 -158c57 0 109 84 113 203v40z" />
    <glyph glyph-name="Scaron" unicode="&#x160;" horiz-adv-x="448" 
d="M404 625l-39 -73c-43 32 -72 46 -128 46c-50 0 -94 -39 -94 -96c0 -49 23 -73 131 -144c74 -48 125 -93 125 -187c0 -105 -66 -184 -182 -184c-78 0 -114 13 -175 52l43 70c46 -31 76 -49 136 -49c52 0 93 39 93 103c0 84 -81 120 -141 160c-80 53 -114 104 -114 172
c0 104 67 176 183 176c68 0 108 -9 162 -46zM361 865l-92 -164h-65l-93 164h72l54 -93l53 93h71z" />
    <glyph glyph-name="scaron" unicode="&#x161;" horiz-adv-x="367" 
d="M329 108c0 -80 -64 -121 -140 -121c-53 0 -99 13 -140 40l29 63c36 -22 73 -41 115 -41c26 0 57 23 57 53c0 47 -38 62 -104 109c-61 43 -90 80 -90 135c0 70 50 119 146 119c50 0 89 -14 126 -38l-34 -62c-29 22 -61 38 -98 38c-31 0 -60 -20 -60 -48
c0 -43 33 -58 94 -103c69 -51 99 -73 99 -144zM319 652l-92 -164h-65l-93 164h72l54 -93l53 93h71z" />
    <glyph glyph-name="Yacute" unicode="&#xdd;" 
d="M454 660l-187 -352v-308h-82v302l-177 358h83l139 -287l142 287h82zM354 833l-93 -120h-72l78 120h87z" />
    <glyph glyph-name="yacute" unicode="&#xfd;" horiz-adv-x="345" 
d="M337 453l-144 -478c-17 -56 -42 -104 -57 -132s-21 -40 -54 -87l-54 38c36 50 48 70 69 117c20 44 28 58 49 127l-138 415h80l92 -297l2 -9l2 9l79 297h74zM298 660l-92 -165h-72l77 165h87z" />
    <glyph glyph-name="Thorn" unicode="&#xde;" horiz-adv-x="466" 
d="M443 345c0 -136 -80 -224 -207 -224c-27 0 -45 5 -64 7v-128h-82v660h84v-120h80c128 0 189 -72 189 -195zM358 340c0 73 -34 133 -114 133h-72v-278c35 -5 37 -5 52 -5c88 0 134 64 134 150z" />
    <glyph glyph-name="thorn" unicode="&#xfe;" horiz-adv-x="455" 
d="M420 239c0 -144 -76 -252 -194 -252c-37 0 -60 6 -79 19v-245h-76v968h76v-324c28 31 66 61 112 61c101 0 161 -95 161 -227zM339 238c0 92 -43 159 -89 159c-44 0 -81 -42 -103 -74v-174c0 -51 9 -97 73 -97c67 0 119 76 119 186z" />
    <glyph glyph-name="Zcaron" unicode="&#x17d;" horiz-adv-x="497" 
d="M463 0h-427v39l311 554h-311v67h413v-45l-312 -548h326v-67zM377 867l-92 -164h-65l-93 164h72l54 -93l53 93h71z" />
    <glyph glyph-name="zcaron" unicode="&#x17e;" horiz-adv-x="389" 
d="M357 0h-329v39l228 349h-218v65h319v-33l-231 -355h231v-65zM327 652l-92 -164h-65l-93 164h72l54 -93l53 93h71z" />
    <glyph glyph-name="onehalf" unicode="&#xbd;" horiz-adv-x="702" 
d="M587 692l-461 -736h-72l461 736h72zM108 324v276h-64v59h138v-335h-74zM418 0v39l133 135c16 17 25 37 25 58c0 31 -12 46 -33 46c-32 0 -58 -38 -75 -59l-48 40c36 44 59 80 127 80s104 -44 104 -105c0 -56 -23 -82 -62 -118l-61 -57h147v-59h-257z" />
    <glyph glyph-name="onequarter" unicode="&#xbc;" horiz-adv-x="702" 
d="M617 692l-461 -736h-72l461 736h72zM182 324h-74v276h-64v59h138v-335zM597 -6v-113h-71v113h-177v26l202 319h46l-1 -285h67v-60h-66zM526 177l-80 -123h80v123z" />
    <glyph glyph-name="onesuperior" unicode="&#xb9;" horiz-adv-x="233" 
d="M88 324v276h-64v59h138v-335h-74z" />
    <glyph glyph-name="threequarters" unicode="&#xbe;" horiz-adv-x="702" 
d="M627 692l-461 -736h-72l461 736h72zM607 -6v-113h-71v113h-177v26l202 319h46l-1 -285h67v-60h-66zM536 177l-80 -123h80v123zM50 213h-30v61c55 0 81 5 105 21c27 18 42 38 42 70c0 48 -27 73 -64 73h-44v50c63 16 90 43 90 83c0 30 -19 46 -33 46
c-13 0 -35 -11 -58 -43l-41 55c33 28 57 50 106 50c60 0 98 -43 98 -102c0 -44 -15 -72 -45 -94c46 -21 64 -66 64 -113c0 -104 -73 -157 -190 -157z" />
    <glyph glyph-name="threesuperior" unicode="&#xb3;" horiz-adv-x="255" 
d="M40 213h-30v61c55 0 81 5 105 21c27 18 42 38 42 70c0 48 -27 73 -64 73h-44v50c63 16 90 43 90 83c0 30 -19 46 -33 46c-13 0 -35 -11 -58 -43l-41 55c33 28 57 50 106 50c60 0 98 -43 98 -102c0 -44 -15 -72 -45 -94c46 -21 64 -66 64 -113c0 -104 -73 -157 -190 -157z
" />
    <glyph glyph-name="twosuperior" unicode="&#xb2;" horiz-adv-x="291" 
d="M15 340v38l133 135c17 17 25 38 25 58c0 31 -12 46 -33 46c-32 0 -58 -37 -75 -58l-48 40c36 44 60 80 127 80c69 0 105 -44 105 -106c0 -56 -23 -81 -63 -118l-61 -56h147v-59h-257z" />
    <glyph glyph-name="brokenbar" unicode="&#xa6;" horiz-adv-x="220" 
d="M148 -239h-72v438h72v-438zM148 291h-72v438h72v-438z" />
    <glyph glyph-name="minus" unicode="&#x2212;" 
d="M440 203h-418v59h418v-59z" />
    <glyph glyph-name="multiply" unicode="&#xd7;" horiz-adv-x="550" 
d="M514 29l-42 -41l-197 196l-197 -197l-42 42l197 197l-197 197l42 42l197 -197l197 197l42 -42l-197 -197z" />
    <glyph glyph-name="Adieresis" unicode="&#xc4;" horiz-adv-x="497" 
d="M372 757c0 -26 -15 -51 -48 -51s-49 25 -49 51c0 27 16 52 49 52s48 -25 48 -52zM223 757c0 -26 -16 -51 -49 -51c-32 0 -48 25 -48 51c0 27 16 52 48 52c33 0 49 -25 49 -52zM490 0h-87l-54 194h-199l-55 -194h-87l198 679h87zM327 271l-77 273l-79 -273h156z" />
    <glyph glyph-name="Aring" unicode="&#xc5;" horiz-adv-x="497" 
d="M331 785c0 -44 -35 -79 -79 -79s-80 35 -80 79s36 80 80 80s79 -36 79 -80zM490 0h-87l-54 195h-199l-55 -195h-87l198 679h87zM293 785c0 23 -19 42 -41 42c-23 0 -42 -19 -42 -42s19 -41 42 -41c22 0 41 18 41 41zM327 272l-77 272l-79 -272h156z" />
    <glyph glyph-name="Ccedilla" unicode="&#xc7;" horiz-adv-x="505" 
d="M486 608l-38 -71c-52 45 -90 58 -133 58c-102 0 -185 -105 -185 -257c0 -167 84 -274 198 -274c37 0 71 9 128 38l20 -72c-12 -7 -63 -41 -141 -42l-28 -55c50 -1 69 -30 69 -77c0 -55 -30 -93 -91 -93c-33 0 -56 7 -94 24l23 58c44 -24 59 -28 66 -28c19 0 25 16 25 36
c0 31 -18 40 -46 40h-33l47 97c-37 7 -52 12 -77 26c-94 53 -154 176 -154 317c0 191 112 339 275 339c104 0 159 -56 169 -64z" />
    <glyph glyph-name="Eacute" unicode="&#xc9;" horiz-adv-x="452" 
d="M388 833l-93 -120h-72l78 120h87zM411 0h-321v660h314v-67h-232v-223h192v-67h-192v-236h239v-67z" />
    <glyph glyph-name="Ntilde" unicode="&#xd1;" horiz-adv-x="629" 
d="M481 744c-27 -32 -71 -51 -114 -51s-76 41 -104 41c-15 0 -46 -13 -62 -30l-35 41c31 25 68 46 110 46c43 0 75 -42 103 -42c19 0 54 18 66 33zM541 -6h-92l-269 515c-2 4 -4 11 -8 19v-528h-82v660h101c76 -146 190 -340 268 -510v510h82v-666z" />
    <glyph glyph-name="Odieresis" unicode="&#xd6;" horiz-adv-x="632" 
d="M448 759c0 -27 -15 -52 -48 -52s-48 25 -48 52c0 26 15 51 48 51s48 -25 48 -51zM286 759c0 -27 -16 -52 -48 -52c-33 0 -50 25 -50 52c0 26 17 51 50 51c32 0 48 -25 48 -51zM591 330c0 -197 -109 -343 -274 -343s-275 146 -275 343c0 196 110 342 275 342
s274 -146 274 -342zM503 330c0 149 -90 272 -186 272s-186 -123 -186 -272c0 -150 90 -273 186 -273s186 123 186 273z" />
    <glyph glyph-name="Udieresis" unicode="&#xdc;" horiz-adv-x="581" 
d="M426 761c0 -27 -15 -51 -48 -51s-48 24 -48 51s15 51 48 51s48 -24 48 -51zM264 761c0 -27 -15 -51 -48 -51s-48 24 -48 51s15 51 48 51s48 -24 48 -51zM507 226c0 -137 -74 -245 -215 -245c-147 0 -216 109 -216 245v434h82v-409c0 -87 21 -199 133 -199
c111 0 134 112 134 199v409h82v-434z" />
    <glyph glyph-name="aacute" unicode="&#xe1;" horiz-adv-x="402" 
d="M325 660l-92 -165h-72l77 165h87zM360 51l-15 -65c-58 5 -79 27 -85 59c-21 -28 -49 -57 -109 -57c-69 0 -106 49 -106 120c0 66 26 105 90 122l118 32v93c0 38 -25 55 -61 55c-27 0 -48 -15 -48 -42c0 -5 2 -9 4 -17l-76 -19c-7 16 -8 20 -8 31c0 59 51 102 139 102
c84 0 127 -45 127 -114v-243v-33c0 -12 12 -20 30 -24zM253 109v93l-121 -35c-9 -21 -10 -34 -10 -52c0 -37 22 -65 41 -65c30 0 62 25 90 59z" />
    <glyph glyph-name="agrave" unicode="&#xe0;" horiz-adv-x="402" 
d="M265 495h-72l-92 165h87zM360 51l-15 -65c-58 5 -79 27 -85 59c-21 -28 -49 -57 -109 -57c-69 0 -106 49 -106 120c0 66 26 105 90 122l118 32v93c0 38 -25 55 -61 55c-27 0 -48 -15 -48 -42c0 -5 2 -9 4 -17l-76 -19c-7 16 -8 20 -8 31c0 59 51 102 139 102
c84 0 127 -45 127 -114v-243v-33c0 -12 12 -20 30 -24zM253 109v93l-121 -35c-9 -21 -10 -34 -10 -52c0 -37 22 -65 41 -65c30 0 62 25 90 59z" />
    <glyph glyph-name="acircumflex" unicode="&#xe2;" horiz-adv-x="402" 
d="M331 495h-74l-52 94l-54 -94h-71l91 165h66zM360 51l-15 -65c-58 5 -79 27 -85 59c-21 -28 -49 -57 -109 -57c-69 0 -106 49 -106 120c0 66 26 105 90 122l118 32v93c0 38 -25 55 -61 55c-27 0 -48 -15 -48 -42c0 -5 2 -9 4 -17l-76 -19c-7 16 -8 20 -8 31
c0 59 51 102 139 102c84 0 127 -45 127 -114v-243v-33c0 -12 12 -20 30 -24zM253 109v93l-121 -35c-9 -21 -10 -34 -10 -52c0 -37 22 -65 41 -65c30 0 62 25 90 59z" />
    <glyph glyph-name="adieresis" unicode="&#xe4;" horiz-adv-x="402" 
d="M316 572c0 -26 -17 -51 -49 -51c-33 0 -49 25 -49 51c0 27 16 52 49 52c32 0 49 -25 49 -52zM175 572c0 -26 -16 -51 -48 -51c-33 0 -49 25 -49 51c0 27 16 52 49 52c32 0 48 -25 48 -52zM360 51l-15 -65c-58 5 -79 27 -85 59c-21 -28 -49 -57 -109 -57
c-69 0 -106 49 -106 120c0 66 26 105 90 122l118 32v93c0 38 -25 55 -61 55c-27 0 -48 -15 -48 -42c0 -5 2 -9 4 -17l-76 -19c-7 16 -8 20 -8 31c0 59 51 102 139 102c84 0 127 -45 127 -114v-243v-33c0 -12 12 -20 30 -24zM253 109v93l-121 -35c-9 -21 -10 -34 -10 -52
c0 -37 22 -65 41 -65c30 0 62 25 90 59z" />
    <glyph glyph-name="atilde" unicode="&#xe3;" horiz-adv-x="402" 
d="M348 568c-27 -32 -62 -52 -105 -52s-75 42 -103 42c-15 0 -36 -13 -52 -30l-36 41c31 25 58 46 100 46c43 0 76 -42 104 -42c19 0 44 18 56 33zM360 51l-15 -65c-58 5 -79 27 -85 59c-21 -28 -49 -57 -109 -57c-69 0 -106 49 -106 120c0 66 26 105 90 122l118 32v93
c0 38 -25 55 -61 55c-27 0 -48 -15 -48 -42c0 -5 2 -9 4 -17l-76 -19c-7 16 -8 20 -8 31c0 59 51 102 139 102c84 0 127 -45 127 -114v-243v-33c0 -12 12 -20 30 -24zM253 109v93l-121 -35c-9 -21 -10 -34 -10 -52c0 -37 22 -65 41 -65c30 0 62 25 90 59z" />
    <glyph glyph-name="aring" unicode="&#xe5;" horiz-adv-x="402" 
d="M282 586c0 -44 -35 -79 -79 -79s-80 35 -80 79s36 80 80 80s79 -36 79 -80zM360 51l-15 -65c-58 5 -79 27 -85 59c-21 -28 -49 -57 -109 -57c-69 0 -106 49 -106 120c0 66 26 105 90 122l118 32v93c0 38 -25 55 -61 55c-27 0 -48 -15 -48 -42c0 -5 2 -9 4 -17l-76 -19
c-7 16 -8 20 -8 31c0 59 51 102 139 102c84 0 127 -45 127 -114v-243v-33c0 -12 12 -20 30 -24zM244 586c0 23 -19 42 -41 42c-23 0 -42 -19 -42 -42s19 -41 42 -41c22 0 41 18 41 41zM253 109v93l-121 -35c-9 -21 -10 -34 -10 -52c0 -37 22 -65 41 -65c30 0 62 25 90 59z
" />
    <glyph glyph-name="ccedilla" unicode="&#xe7;" horiz-adv-x="365" 
d="M365 36c-35 -27 -66 -43 -113 -48l-25 -56c42 -3 60 -31 60 -76c0 -52 -34 -92 -85 -92c-28 0 -54 2 -88 23l23 48c30 -18 43 -18 58 -18c18 0 34 16 34 36c0 31 -18 40 -45 40h-35l47 96c-101 21 -159 106 -159 233c0 140 76 243 198 243c80 0 118 -43 122 -47l-40 -54
c-31 30 -60 35 -84 35c-63 0 -114 -71 -114 -174c0 -105 52 -171 119 -171c26 0 64 12 90 36z" />
    <glyph glyph-name="eacute" unicode="&#xe9;" horiz-adv-x="396" 
d="M331 660l-92 -165h-73l78 165h87zM365 234h-249c0 -120 41 -180 111 -180c23 0 59 10 99 48l34 -56c-40 -34 -90 -59 -146 -59c-112 0 -177 98 -177 239c0 142 66 239 180 239c96 0 148 -77 148 -188v-43zM283 288c-1 70 -31 113 -70 113c-52 0 -83 -37 -92 -113h162z
" />
    <glyph glyph-name="egrave" unicode="&#xe8;" horiz-adv-x="396" 
d="M280 495h-72l-92 165h87zM365 234h-249c0 -120 41 -180 111 -180c23 0 59 10 99 48l34 -56c-40 -34 -90 -59 -146 -59c-112 0 -177 98 -177 239c0 142 66 239 180 239c96 0 148 -77 148 -188v-43zM283 288c-1 70 -31 113 -70 113c-52 0 -83 -37 -92 -113h162z" />
    <glyph glyph-name="ecircumflex" unicode="&#xea;" horiz-adv-x="396" 
d="M340 495h-71l-53 94l-54 -94h-71l92 165h65zM365 234h-249c0 -120 41 -180 111 -180c23 0 59 10 99 48l34 -56c-40 -34 -90 -59 -146 -59c-112 0 -177 98 -177 239c0 142 66 239 180 239c96 0 148 -77 148 -188v-43zM283 288c-1 70 -31 113 -70 113
c-52 0 -83 -37 -92 -113h162z" />
    <glyph glyph-name="edieresis" unicode="&#xeb;" horiz-adv-x="396" 
d="M335 571c0 -26 -16 -51 -48 -51c-33 0 -49 25 -49 51c0 27 16 52 49 52c32 0 48 -25 48 -52zM194 571c0 -26 -16 -51 -48 -51c-33 0 -49 25 -49 51c0 27 16 52 49 52c32 0 48 -25 48 -52zM365 234h-249c0 -120 41 -180 111 -180c23 0 59 10 99 48l34 -56
c-40 -34 -90 -59 -146 -59c-112 0 -177 98 -177 239c0 142 66 239 180 239c96 0 148 -77 148 -188v-43zM283 288c-1 70 -31 113 -70 113c-52 0 -83 -37 -92 -113h162z" />
    <glyph glyph-name="iacute" unicode="&#xed;" horiz-adv-x="218" 
d="M229 660l-92 -165h-71l76 165h87zM147 0h-76v454h76v-454z" />
    <glyph glyph-name="igrave" unicode="&#xec;" horiz-adv-x="218" 
d="M158 495h-71l-92 165h87zM147 0h-76v454h76v-454z" />
    <glyph glyph-name="icircumflex" unicode="&#xee;" horiz-adv-x="218" 
d="M234 495h-71l-53 94l-54 -94h-72l93 165h65zM147 0h-76v454h76v-454z" />
    <glyph glyph-name="idieresis" unicode="&#xef;" horiz-adv-x="218" 
d="M230 572c0 -26 -16 -51 -48 -51c-33 0 -49 25 -49 51c0 27 16 52 49 52c32 0 48 -25 48 -52zM90 572c0 -26 -17 -51 -49 -51c-33 0 -49 25 -49 51c0 27 16 52 49 52c32 0 49 -25 49 -52zM147 0h-76v454h76v-454z" />
    <glyph glyph-name="ntilde" unicode="&#xf1;" horiz-adv-x="456" 
d="M379 568c-27 -32 -61 -52 -104 -52s-76 42 -104 42c-15 0 -36 -13 -52 -30l-35 41c31 25 58 46 100 46c43 0 75 -42 103 -42c19 0 44 18 56 33zM390 0h-76v321c0 33 0 75 -45 75c-27 0 -58 -11 -122 -99v-297h-76v453h76v-73c35 47 77 85 140 85c75 0 103 -44 103 -127
v-338z" />
    <glyph glyph-name="oacute" unicode="&#xf3;" horiz-adv-x="447" 
d="M340 660l-88 -165h-69l70 165h87zM412 226c0 -128 -78 -239 -187 -239c-110 0 -188 111 -188 239c0 129 79 239 188 239s187 -110 187 -239zM330 226c0 97 -52 174 -105 174c-54 0 -106 -77 -106 -174s52 -174 106 -174c53 0 105 77 105 174z" />
    <glyph glyph-name="ograve" unicode="&#xf2;" horiz-adv-x="447" 
d="M282 495h-72l-98 165h87zM412 226c0 -128 -78 -239 -187 -239c-110 0 -188 111 -188 239c0 129 79 239 188 239s187 -110 187 -239zM330 226c0 97 -52 174 -105 174c-54 0 -106 -77 -106 -174s52 -174 106 -174c53 0 105 77 105 174z" />
    <glyph glyph-name="ocircumflex" unicode="&#xf4;" horiz-adv-x="447" 
d="M352 495h-71l-54 94l-53 -94h-71l92 165h65zM412 226c0 -128 -78 -239 -187 -239c-110 0 -188 111 -188 239c0 129 79 239 188 239s187 -110 187 -239zM330 226c0 97 -52 174 -105 174c-54 0 -106 -77 -106 -174s52 -174 106 -174c53 0 105 77 105 174z" />
    <glyph glyph-name="odieresis" unicode="&#xf6;" horiz-adv-x="447" 
d="M347 571c0 -26 -16 -51 -48 -51c-33 0 -49 25 -49 51c0 27 16 52 49 52c32 0 48 -25 48 -52zM206 571c0 -26 -16 -51 -48 -51c-33 0 -49 25 -49 51c0 27 16 52 49 52c32 0 48 -25 48 -52zM412 226c0 -128 -78 -239 -187 -239c-110 0 -188 111 -188 239
c0 129 79 239 188 239s187 -110 187 -239zM330 226c0 97 -52 174 -105 174c-54 0 -106 -77 -106 -174s52 -174 106 -174c53 0 105 77 105 174z" />
    <glyph glyph-name="otilde" unicode="&#xf5;" horiz-adv-x="447" 
d="M367 568c-27 -32 -61 -52 -104 -52s-76 42 -104 42c-15 0 -36 -13 -52 -30l-35 41c31 25 58 46 100 46c43 0 75 -42 103 -42c19 0 44 18 56 33zM412 226c0 -128 -78 -239 -187 -239c-110 0 -188 111 -188 239c0 129 79 239 188 239s187 -110 187 -239zM330 226
c0 97 -52 174 -105 174c-54 0 -106 -77 -106 -174s52 -174 106 -174c53 0 105 77 105 174z" />
    <glyph glyph-name="uacute" unicode="&#xfa;" horiz-adv-x="454" 
d="M348 660l-93 -165h-72l78 165h87zM386 -1h-76v73c-35 -47 -77 -85 -140 -85c-75 0 -103 44 -103 127v338h76v-321c0 -33 0 -75 45 -75c27 0 58 11 122 99v297h76v-453z" />
    <glyph glyph-name="ugrave" unicode="&#xf9;" horiz-adv-x="454" 
d="M281 495h-71l-92 165h87zM386 -1h-76v73c-35 -47 -77 -85 -140 -85c-75 0 -103 44 -103 127v338h76v-321c0 -33 0 -75 45 -75c27 0 58 11 122 99v297h76v-453z" />
    <glyph glyph-name="ucircumflex" unicode="&#xfb;" horiz-adv-x="454" 
d="M352 495h-71l-54 94l-53 -94h-71l92 165h65zM386 -1h-76v73c-35 -47 -77 -85 -140 -85c-75 0 -103 44 -103 127v338h76v-321c0 -33 0 -75 45 -75c27 0 58 11 122 99v297h76v-453z" />
    <glyph glyph-name="udieresis" unicode="&#xfc;" horiz-adv-x="454" 
d="M352 571c0 -26 -17 -51 -49 -51c-33 0 -49 25 -49 51c0 27 16 52 49 52c32 0 49 -25 49 -52zM211 571c0 -26 -16 -51 -48 -51c-33 0 -49 25 -49 51c0 27 16 52 49 52c32 0 48 -25 48 -52zM386 -1h-76v73c-35 -47 -77 -85 -140 -85c-75 0 -103 44 -103 127v338h76v-321
c0 -33 0 -75 45 -75c27 0 58 11 122 99v297h76v-453z" />
    <glyph glyph-name="degree" unicode="&#xb0;" horiz-adv-x="287" 
d="M265 547c0 -67 -54 -121 -122 -121c-67 0 -121 54 -121 121s54 122 121 122c68 0 122 -55 122 -122zM215 547c0 40 -32 72 -72 72c-39 0 -71 -32 -71 -72c0 -39 32 -71 71 -71c40 0 72 32 72 71z" />
    <glyph glyph-name="registered" unicode="&#xae;" horiz-adv-x="805" 
d="M742 243c0 -225 -146 -411 -338 -411c-193 0 -339 186 -339 411c0 224 146 410 339 410c192 0 338 -186 338 -410zM674 243c0 192 -127 344 -270 344c-144 0 -271 -152 -271 -344c0 -193 127 -345 271 -345c143 0 270 152 270 345zM578 6h-97l-117 194h-24v-194h-82v472
h144c109 0 151 -41 151 -133c0 -76 -36 -128 -102 -138zM471 343c0 27 -9 51 -23 60c-12 7 -30 10 -55 10h-53v-154h53c48 0 78 25 78 84z" />
    <glyph glyph-name="copyright" unicode="&#xa9;" horiz-adv-x="829" 
d="M754 243c0 -225 -146 -411 -339 -411c-192 0 -337 186 -337 411c0 224 145 410 337 410c193 0 339 -186 339 -410zM686 243c0 192 -127 344 -271 344c-143 0 -270 -152 -270 -344c0 -193 127 -345 270 -345c144 0 271 152 271 345zM566 50c-11 -9 -21 -15 -26 -18
c-32 -19 -67 -31 -114 -31c-127 0 -204 97 -204 235c0 140 81 243 208 243c84 0 124 -42 129 -46l-43 -71c-40 40 -63 47 -88 47c-66 0 -121 -67 -121 -170c0 -105 56 -167 127 -167c28 0 51 8 94 46z" />
    <glyph glyph-name="trademark" unicode="&#x2122;" horiz-adv-x="712" 
d="M651 339h-66v207l-61 -207h-86l-55 200v-200h-71v321h106l66 -238l66 238h101v-321zM272 602h-81v-263h-72v263h-80v58h233v-58z" />
    <glyph glyph-name="plusminus" unicode="&#xb1;" 
d="M430 248h-168v-168h-61v168h-168v58h168v168h61v-168h168v-58zM430 0h-397v59h397v-59z" />
    <glyph glyph-name="mu" unicode="&#xb5;" horiz-adv-x="454" 
d="M386 -1h-76v73c-35 -47 -77 -85 -140 -85c-10 0 -19 1 -27 2v-228h-76v353v338h76v-321c0 -33 0 -75 45 -75c27 0 58 11 122 99v297h76v-453z" />
    <glyph glyph-name="logicalnot" unicode="&#xac;" horiz-adv-x="200" 
 />
    <glyph glyph-name="Agrave" unicode="&#xc0;" horiz-adv-x="497" 
d="M291 713h-71l-94 120h88zM490 0h-87l-54 196h-199l-55 -196h-87l198 679h87zM327 269l-77 294l-79 -294h156z" />
    <glyph glyph-name="Atilde" unicode="&#xc3;" horiz-adv-x="497" 
d="M412 744c-27 -32 -71 -51 -114 -51s-75 41 -103 41c-15 0 -47 -13 -63 -30l-35 41c31 25 68 46 110 46c43 0 76 -42 104 -42c19 0 53 18 65 33zM490 0h-87l-54 196h-199l-55 -196h-87l198 679h87zM327 269l-77 294l-79 -294h156z" />
    <glyph glyph-name="Otilde" unicode="&#xd5;" horiz-adv-x="632" 
d="M481 744c-27 -32 -71 -51 -114 -51s-76 41 -104 41c-15 0 -46 -13 -62 -30l-35 41c31 25 68 46 110 46c43 0 75 -42 103 -42c19 0 54 18 66 33zM591 330c0 -197 -109 -343 -274 -343s-275 146 -275 343c0 196 110 342 275 342s274 -146 274 -342zM503 330
c0 149 -90 272 -186 272s-186 -123 -186 -272c0 -150 90 -273 186 -273s186 123 186 273z" />
    <glyph glyph-name="divide" unicode="&#xf7;" 
d="M287 426c0 -31 -18 -59 -54 -59c-37 0 -56 28 -56 59c0 32 19 60 56 60c36 0 54 -28 54 -60zM440 207h-418v59h418v-59zM287 49c0 -32 -18 -60 -54 -60c-37 0 -56 28 -56 60c0 31 19 59 56 59c36 0 54 -28 54 -59z" />
    <glyph glyph-name="ydieresis" unicode="&#xff;" horiz-adv-x="345" 
d="M295 546c0 -26 -17 -51 -49 -51c-33 0 -49 25 -49 51c0 27 16 52 49 52c32 0 49 -25 49 -52zM154 546c0 -26 -16 -51 -48 -51c-33 0 -49 25 -49 51c0 27 16 52 49 52c32 0 48 -25 48 -52zM337 453l-144 -478c-17 -56 -42 -104 -57 -132s-21 -40 -54 -87l-54 38
c36 50 48 70 69 117c20 44 28 58 49 127l-138 415h80l92 -297l2 -9l2 9l79 297h74z" />
    <glyph glyph-name="Ydieresis" unicode="&#x178;" 
d="M356 757c0 -27 -16 -52 -49 -52c-32 0 -49 25 -49 52c0 26 17 51 49 51c33 0 49 -25 49 -51zM193 757c0 -27 -16 -52 -49 -52s-48 25 -48 52c0 26 15 51 48 51s49 -25 49 -51zM454 660l-187 -352v-308h-82v302l-177 358h83l139 -287l142 287h82z" />
    <glyph glyph-name="Euro" unicode="&#x20ac;" horiz-adv-x="500" 
d="M430 474l-43 -85c-11 9 -20 18 -32 24c-13 7 -30 12 -55 12c-33 0 -66 -37 -84 -87h157l-7 -60h-165c-1 -10 -1 -19 -1 -29v-17h163l-5 -60h-146c17 -52 49 -91 80 -91c38 0 66 12 99 33l39 -82c-51 -30 -87 -45 -149 -45c-106 0 -173 78 -194 185h-88v48l81 12v16
c0 10 0 20 1 30h-75v48l84 12c25 105 94 181 199 181c59 0 93 -11 141 -45z" />
    <glyph glyph-name="Acircumflex" unicode="&#xc2;" horiz-adv-x="497" 
d="M378 694h-73l-54 59l-53 -59h-71l92 119h65zM490 0h-87l-54 196h-199l-55 -196h-87l198 679h87zM327 269l-77 294l-79 -294h156z" />
    <glyph glyph-name="Ecircumflex" unicode="&#xca;" horiz-adv-x="452" 
d="M386 694h-74l-53 59l-54 -59h-70l91 119h65zM411 0h-321v660h314v-67h-232v-223h192v-67h-192v-236h239v-67z" />
    <glyph glyph-name="Aacute" unicode="&#xc1;" horiz-adv-x="497" 
d="M381 833l-93 -120h-72l78 120h87zM490 0h-87l-54 196h-199l-55 -196h-87l198 679h87zM327 269l-77 294l-79 -294h156z" />
    <glyph glyph-name="Edieresis" unicode="&#xcb;" horiz-adv-x="452" 
d="M381 760c0 -27 -16 -52 -49 -52s-48 25 -48 52s15 51 48 51s49 -24 49 -51zM232 760c0 -27 -16 -52 -48 -52c-33 0 -49 25 -49 52s16 51 49 51c32 0 48 -24 48 -51zM411 0h-321v660h314v-67h-232v-223h192v-67h-192v-236h239v-67z" />
    <glyph glyph-name="Egrave" unicode="&#xc8;" horiz-adv-x="452" 
d="M310 713h-72l-92 120h87zM411 0h-321v660h314v-67h-232v-223h192v-67h-192v-236h239v-67z" />
    <glyph glyph-name="Iacute" unicode="&#xcd;" horiz-adv-x="261" 
d="M242 833l-92 -120h-72l77 120h87zM172 0h-82v660h82v-660z" />
    <glyph glyph-name="Icircumflex" unicode="&#xce;" horiz-adv-x="261" 
d="M260 694h-72l-54 59l-53 -59h-71l92 119h65zM172 0h-82v660h82v-660z" />
    <glyph glyph-name="Idieresis" unicode="&#xcf;" horiz-adv-x="261" 
d="M242 757c0 -26 -15 -51 -48 -51s-48 25 -48 51c0 27 15 52 48 52s48 -25 48 -52zM120 757c0 -26 -15 -51 -48 -51s-48 25 -48 51c0 27 15 52 48 52s48 -25 48 -52zM172 0h-82v660h82v-660z" />
    <glyph glyph-name="Igrave" unicode="&#xcc;" horiz-adv-x="261" 
d="M188 713h-72l-92 120h87zM172 0h-82v660h82v-660z" />
    <glyph glyph-name="Oacute" unicode="&#xd3;" horiz-adv-x="632" 
d="M442 833l-93 -120h-71l77 120h87zM591 330c0 -197 -109 -343 -274 -343s-275 146 -275 343c0 196 110 342 275 342s274 -146 274 -342zM503 330c0 149 -90 272 -186 272s-186 -123 -186 -272c0 -150 90 -273 186 -273s186 123 186 273z" />
    <glyph glyph-name="Ocircumflex" unicode="&#xd4;" horiz-adv-x="632" 
d="M443 694h-73l-54 59l-54 -59h-70l91 119h65zM591 330c0 -197 -109 -343 -274 -343s-275 146 -275 343c0 196 110 342 275 342s274 -146 274 -342zM503 330c0 149 -90 272 -186 272s-186 -123 -186 -272c0 -150 90 -273 186 -273s186 123 186 273z" />
    <glyph glyph-name="Ograve" unicode="&#xd2;" horiz-adv-x="632" 
d="M348 713h-71l-93 120h87zM591 330c0 -197 -109 -343 -274 -343s-275 146 -275 343c0 196 110 342 275 342s274 -146 274 -342zM503 330c0 149 -90 272 -186 272s-186 -123 -186 -272c0 -150 90 -273 186 -273s186 123 186 273z" />
    <glyph glyph-name="Uacute" unicode="&#xda;" horiz-adv-x="581" 
d="M414 833l-92 -120h-72l77 120h87zM507 226c0 -137 -74 -245 -215 -245c-147 0 -216 109 -216 245v434h82v-409c0 -87 21 -199 133 -199c111 0 134 112 134 199v409h82v-434z" />
    <glyph glyph-name="Ucircumflex" unicode="&#xdb;" horiz-adv-x="581" 
d="M423 694h-73l-53 59l-54 -59h-71l92 119h65zM507 226c0 -137 -74 -245 -215 -245c-147 0 -216 109 -216 245v434h82v-409c0 -87 21 -199 133 -199c111 0 134 112 134 199v409h82v-434z" />
    <glyph glyph-name="Ugrave" unicode="&#xd9;" horiz-adv-x="581" 
d="M355 713h-72l-93 120h87zM507 226c0 -137 -74 -245 -215 -245c-147 0 -216 109 -216 245v434h82v-409c0 -87 21 -199 133 -199c111 0 134 112 134 199v409h82v-434z" />
    </font>
</defs>
</svg>
