<?xml version="1.0" encoding="utf-8"?>
<!-- Generator: Adobe Illustrator 23.0.1, SVG Export Plug-In . SVG Version: 6.00 Build 0)  -->
<svg version="1.1" id="Layer_1" xmlns="http://www.w3.org/2000/svg" xmlns:xlink="http://www.w3.org/1999/xlink" x="0px" y="0px"
	 viewBox="0 0 212 27" style="enable-background:new 0 0 212 27;" xml:space="preserve">
<style type="text/css">
	.st0{fill:#AAC849;}
	.st1{fill:#FFFFFF;}
</style>
<g>
	<polygon class="st0" points="16.95,15.49 13.91,20.76 16.95,26.03 23.03,26.03 26.06,20.76 23.03,15.49 	"/>
	<polygon class="st0" points="16.95,0.97 13.91,6.24 16.95,11.51 23.03,11.51 26.07,6.23 23.03,0.97 	"/>
	<polygon class="st0" points="10.11,8.19 4.04,8.2 1,13.48 4.04,18.74 10.12,18.73 13.15,13.47 	"/>
	<g>
		<path class="st1" d="M40.38,16.62c-0.77,0.8-1.86,1.18-3.52,1.18h-3.15V9.25h3.15c1.64,0,2.75,0.38,3.54,1.18
			c0.7,0.71,1.21,2.02,1.21,3.09C41.61,14.62,41.13,15.81,40.38,16.62z M39.03,10.97c-0.53-0.45-1.09-0.59-2.28-0.59h-1.68v6.29
			h1.57c1.23,0,1.82-0.16,2.41-0.63c0.68-0.55,1.13-1.57,1.13-2.54C40.18,12.53,39.76,11.56,39.03,10.97z"/>
		<path class="st1" d="M44.03,17.8V9.25h1.36v8.55H44.03z"/>
		<path class="st1" d="M54.77,10.95c-0.39-0.29-0.55-0.39-0.86-0.5c-0.38-0.12-0.89-0.21-1.39-0.21c-1.93,0-3.27,1.31-3.27,3.18
			c0,1,0.38,1.89,1.02,2.54c0.64,0.62,1.43,0.89,2.68,0.89c0.8,0,1.18-0.09,1.9-0.45l0.39,1c-0.96,0.39-1.72,0.55-2.56,0.55
			c-2.86,0-4.86-1.84-4.86-4.47c0-2.5,2.04-4.4,4.73-4.4c1.09,0,1.93,0.25,2.86,0.82L54.77,10.95z"/>
		<path class="st1" d="M57.95,17.8V9.25h1.36v8.55H57.95z M63.01,17.8l-3.6-4.28l3.49-4.27h1.8l-3.61,4.27l3.82,4.28H63.01z"/>
		<path class="st1" d="M67.5,17.8V9.25h1.36v8.55H67.5z"/>
		<path class="st1" d="M78.76,17.91l-4.83-6.17c-0.28-0.37-0.39-0.55-0.44-0.79v6.85h-1.25V9.25h1.36l4.83,6.08
			c0.16,0.18,0.3,0.52,0.34,0.79V9.25h1.23v8.65H78.76z"/>
		<path class="st1" d="M88.34,10.95c-0.45-0.3-0.64-0.38-1.07-0.52c-0.45-0.13-0.82-0.18-1.2-0.18c-1.09,0-1.75,0.39-1.75,1.05
			c0,0.18,0.03,0.34,0.11,0.45c0.25,0.38,0.54,0.54,2.2,1.34c1.61,0.79,2.12,1.38,2.12,2.43c0,1.52-1.18,2.43-3.11,2.43
			c-0.64,0-1.25-0.09-1.75-0.27c-0.36-0.15-0.61-0.27-1.22-0.64l0.61-1.16c0.53,0.39,0.77,0.54,1.11,0.68
			c0.43,0.18,0.93,0.28,1.41,0.28c1,0,1.59-0.43,1.59-1.14c0-0.57-0.28-0.95-0.96-1.27l-1.56-0.75c-1.3-0.63-1.89-1.34-1.89-2.25
			c0-1.41,1.21-2.32,3.11-2.32c0.56,0,1.11,0.07,1.59,0.21c0.39,0.11,0.61,0.21,1.14,0.5L88.34,10.95z"/>
		<path class="st1" d="M95.72,17.96c-2.75,0-4.74-1.86-4.74-4.44c0-2.55,1.99-4.43,4.74-4.43c2.74,0,4.74,1.88,4.74,4.43
			C100.46,16.1,98.46,17.96,95.72,17.96z M95.72,10.24c-1.87,0-3.31,1.41-3.31,3.28c0,1.88,1.43,3.31,3.31,3.31
			c1.88,0,3.29-1.43,3.29-3.31C99.01,11.65,97.6,10.24,95.72,10.24z"/>
		<path class="st1" d="M109.57,17.91l-4.82-6.17c-0.29-0.37-0.39-0.55-0.45-0.79v6.85h-1.25V9.25h1.36l4.83,6.08
			c0.16,0.18,0.3,0.52,0.34,0.79V9.25h1.24v8.65H109.57z"/>
		<path class="st1" d="M120.41,13.02H123v1.01h-2.59v2.65h-1.01v-2.65h-2.69v-1.01h2.69v-2.65h1.01V13.02z"/>
		<path class="st1" d="M134.86,17.8l-0.98-2.38h-3.66l-0.97,2.38h-1.36l3.49-8.76h1.34l3.49,8.76H134.86z M132.06,10.49l-1.47,3.82
			h2.91L132.06,10.49z"/>
		<path class="st1" d="M143.29,10.95c-0.45-0.3-0.64-0.38-1.07-0.52c-0.45-0.13-0.83-0.18-1.2-0.18c-1.09,0-1.75,0.39-1.75,1.05
			c0,0.18,0.03,0.34,0.11,0.45c0.25,0.38,0.54,0.54,2.2,1.34c1.61,0.79,2.13,1.38,2.13,2.43c0,1.52-1.18,2.43-3.12,2.43
			c-0.64,0-1.25-0.09-1.75-0.27c-0.36-0.15-0.61-0.27-1.21-0.64l0.61-1.16c0.54,0.39,0.77,0.54,1.11,0.68
			c0.43,0.18,0.93,0.28,1.41,0.28c1.01,0,1.6-0.43,1.6-1.14c0-0.57-0.29-0.95-0.97-1.27l-1.55-0.75c-1.3-0.63-1.89-1.34-1.89-2.25
			c0-1.41,1.22-2.32,3.11-2.32c0.56,0,1.12,0.07,1.59,0.21c0.4,0.11,0.61,0.21,1.15,0.5L143.29,10.95z"/>
		<path class="st1" d="M151.59,10.95c-0.45-0.3-0.65-0.38-1.08-0.52c-0.45-0.13-0.82-0.18-1.2-0.18c-1.09,0-1.75,0.39-1.75,1.05
			c0,0.18,0.03,0.34,0.11,0.45c0.24,0.38,0.53,0.54,2.19,1.34c1.61,0.79,2.13,1.38,2.13,2.43c0,1.52-1.18,2.43-3.11,2.43
			c-0.64,0-1.26-0.09-1.75-0.27c-0.36-0.15-0.61-0.27-1.22-0.64l0.61-1.16c0.53,0.39,0.77,0.54,1.11,0.68
			c0.43,0.18,0.94,0.28,1.42,0.28c1,0,1.59-0.43,1.59-1.14c0-0.57-0.29-0.95-0.96-1.27l-1.56-0.75c-1.3-0.63-1.9-1.34-1.9-2.25
			c0-1.41,1.22-2.32,3.11-2.32c0.56,0,1.11,0.07,1.59,0.21c0.39,0.11,0.61,0.21,1.14,0.5L151.59,10.95z"/>
		<path class="st1" d="M158.87,17.96c-2.75,0-4.74-1.86-4.74-4.44c0-2.55,1.99-4.43,4.74-4.43c2.73,0,4.74,1.88,4.74,4.43
			C163.61,16.1,161.61,17.96,158.87,17.96z M158.87,10.24c-1.87,0-3.3,1.41-3.3,3.28c0,1.88,1.43,3.31,3.3,3.31
			c1.88,0,3.29-1.43,3.29-3.31C162.17,11.65,160.75,10.24,158.87,10.24z"/>
		<path class="st1" d="M172.6,10.95c-0.39-0.29-0.55-0.39-0.85-0.5c-0.38-0.12-0.89-0.21-1.4-0.21c-1.93,0-3.27,1.31-3.27,3.18
			c0,1,0.37,1.89,1.01,2.54c0.65,0.62,1.44,0.89,2.68,0.89c0.8,0,1.19-0.09,1.9-0.45l0.39,1c-0.97,0.39-1.71,0.55-2.55,0.55
			c-2.87,0-4.87-1.84-4.87-4.47c0-2.5,2.04-4.4,4.74-4.4c1.09,0,1.93,0.25,2.86,0.82L172.6,10.95z"/>
		<path class="st1" d="M175.88,17.8V9.25h1.35v8.55H175.88z"/>
		<path class="st1" d="M186.35,17.8l-0.98-2.38h-3.67l-0.96,2.38h-1.36l3.49-8.76h1.34l3.48,8.76H186.35z M183.55,10.49l-1.46,3.82
			h2.91L183.55,10.49z"/>
		<path class="st1" d="M192.3,10.38v7.42h-1.34v-7.42h-3.04V9.25h7.42v1.13H192.3z"/>
		<path class="st1" d="M197.54,17.8V9.25h5.29v1.13h-3.94v2.47h3.26v1.13h-3.26v2.7h4.04v1.13H197.54z"/>
		<path class="st1" d="M210.52,10.95c-0.45-0.3-0.64-0.38-1.07-0.52c-0.45-0.13-0.83-0.18-1.21-0.18c-1.09,0-1.75,0.39-1.75,1.05
			c0,0.18,0.04,0.34,0.11,0.45c0.25,0.38,0.54,0.54,2.2,1.34c1.6,0.79,2.13,1.38,2.13,2.43c0,1.52-1.18,2.43-3.12,2.43
			c-0.64,0-1.25-0.09-1.75-0.27c-0.36-0.15-0.61-0.27-1.21-0.64l0.6-1.16c0.54,0.39,0.77,0.54,1.11,0.68
			c0.43,0.18,0.93,0.28,1.41,0.28c1,0,1.59-0.43,1.59-1.14c0-0.57-0.28-0.95-0.97-1.27l-1.56-0.75c-1.3-0.63-1.89-1.34-1.89-2.25
			c0-1.41,1.21-2.32,3.11-2.32c0.56,0,1.11,0.07,1.59,0.21c0.39,0.11,0.61,0.21,1.14,0.5L210.52,10.95z"/>
	</g>
</g>
</svg>
